<?xml version="1.0" encoding="UTF-8" standalone="no"?>
<!-- Created with Inkscape (http://www.inkscape.org/) -->

<svg
   xmlns:dc="http://purl.org/dc/elements/1.1/"
   xmlns:cc="http://creativecommons.org/ns#"
   xmlns:rdf="http://www.w3.org/1999/02/22-rdf-syntax-ns#"
   xmlns:svg="http://www.w3.org/2000/svg"
   xmlns="http://www.w3.org/2000/svg"
   xmlns:sodipodi="http://sodipodi.sourceforge.net/DTD/sodipodi-0.dtd"
   xmlns:inkscape="http://www.inkscape.org/namespaces/inkscape"
   width="210mm"
   height="297mm"
   viewBox="0 0 210 297"
   version="1.1"
   id="svg8"
   inkscape:version="0.92.4 (5da689c313, 2019-01-14)"
   sodipodi:docname="aghanim.svg"
   inkscape:export-filename="C:\Users\jans-X\Documents\Freecodecamp_responsive_web\freecodecamp_responsive_web\3_product_landing\images\logo.png"
   inkscape:export-xdpi="227.34904"
   inkscape:export-ydpi="227.34904">
  <defs
     id="defs2" />
  <sodipodi:namedview
     id="base"
     pagecolor="#ffffff"
     bordercolor="#666666"
     borderopacity="1.0"
     inkscape:pageopacity="0.0"
     inkscape:pageshadow="2"
     inkscape:zoom="1.4"
     inkscape:cx="280.99903"
     inkscape:cy="626.51814"
     inkscape:document-units="mm"
     inkscape:current-layer="layer1"
     showgrid="false"
     showguides="true"
     inkscape:guide-bbox="true"
     inkscape:window-width="1920"
     inkscape:window-height="1018"
     inkscape:window-x="-8"
     inkscape:window-y="-8"
     inkscape:window-maximized="1" />
  <metadata
     id="metadata5">
    <rdf:RDF>
      <cc:Work
         rdf:about="">
        <dc:format>image/svg+xml</dc:format>
        <dc:type
           rdf:resource="http://purl.org/dc/dcmitype/StillImage" />
        <dc:title></dc:title>
      </cc:Work>
    </rdf:RDF>
  </metadata>
  <g
     inkscape:label="Camada 1"
     inkscape:groupmode="layer"
     id="layer1">
    <g
       id="g4627"
       transform="rotate(57.532913,77.932704,96.084717)"
       style="fill:#ffffff">
      <path
         sodipodi:nodetypes="cscsc"
         inkscape:connector-curvature="0"
         id="path4622"
         d="m 99.573221,144.32597 c 0,-2.06065 0.878219,-5.93195 1.811599,-8.05578 0.97903,-2.22769 2.01541,-2.66001 2.01541,-2.66001 0,0 1.3406,0.84937 2.30543,3.02785 0.94854,2.14171 1.52158,5.59487 1.52158,7.68794"
         style="opacity:1;fill:none;fill-opacity:1;fill-rule:nonzero;stroke:#000000;stroke-width:0.52916664;stroke-linejoin:bevel;stroke-miterlimit:4;stroke-dasharray:none;stroke-dashoffset:0;stroke-opacity:1" />
      <path
         style="fill:none;stroke:#000000;stroke-width:0.5291667;stroke-linecap:butt;stroke-linejoin:bevel;stroke-miterlimit:4;stroke-dasharray:none;stroke-opacity:1"
         d="m 105.13912,148.49684 -1.09842,0.62529 -0.64047,-2.46092 -0.64047,2.46092 -1.09842,-0.62529 v -3.65212 l -1.37644,-0.65746 c -0.543461,-0.13689 -0.933316,-0.32687 -1.350796,-0.27477 l 1.163476,1.43249 0.18732,1.45875 -2.288008,0.85045 0.330729,0.70302 1.769959,0.0242 0.18732,0.88814 -0.779286,0.99078 0.250566,0.92545 1.90516,-1.07935 0.66374,0.40276 v 5.17206 h 2.1503 v -5.17206 l 0.66374,-0.40276 1.90516,1.07935 0.25057,-0.92545 -0.77929,-0.99078 0.18732,-0.88814 1.76996,-0.0242 0.33073,-0.70302 -2.28801,-0.85045 0.18732,-1.45875 1.16348,-1.43249 c -0.41748,-0.0521 -0.80734,0.13788 -1.3508,0.27477 l -1.37644,0.65746 z"
         id="path4605"
         inkscape:connector-curvature="0"
         sodipodi:nodetypes="cccccccccccccccccccccccccccccccccc" />
    </g>
    <text
       xml:space="preserve"
       style="font-style:normal;font-variant:normal;font-weight:normal;font-stretch:normal;font-size:16.16397476px;line-height:1.25;font-family:NSimSun;-inkscape-font-specification:NSimSun;letter-spacing:0px;word-spacing:0px;fill:#000000;fill-opacity:1;stroke:none;stroke-width:0.26458332"
       x="59.914047"
       y="150.02374"
       id="text4631"
       transform="scale(1.0097961,0.99029893)"><tspan
         sodipodi:role="line"
         id="tspan4629"
         x="59.914047"
         y="150.02374"
         style="font-style:normal;font-variant:normal;font-weight:normal;font-stretch:normal;font-family:SimSun;-inkscape-font-specification:SimSun;stroke-width:0.26458332">Cetro de Aghanim</tspan></text>
  </g>
</svg>
