<?xml version="1.0" encoding="UTF-8" standalone="no"?>
<!-- Created with Inkscape (http://www.inkscape.org/) -->

<svg
   xmlns:dc="http://purl.org/dc/elements/1.1/"
   xmlns:cc="http://creativecommons.org/ns#"
   xmlns:rdf="http://www.w3.org/1999/02/22-rdf-syntax-ns#"
   xmlns:svg="http://www.w3.org/2000/svg"
   xmlns="http://www.w3.org/2000/svg"
   xmlns:sodipodi="http://sodipodi.sourceforge.net/DTD/sodipodi-0.dtd"
   xmlns:inkscape="http://www.inkscape.org/namespaces/inkscape"
   width="210mm"
   height="297mm"
   viewBox="0 0 210 297"
   version="1.1"
   id="svg8"
   sodipodi:docname="roles.svg"
   inkscape:version="0.92.4 (5da689c313, 2019-01-14)">
  <defs
     id="defs2" />
  <sodipodi:namedview
     id="base"
     pagecolor="#ffffff"
     bordercolor="#666666"
     borderopacity="1.0"
     inkscape:pageopacity="0.0"
     inkscape:pageshadow="2"
     inkscape:zoom="0.7"
     inkscape:cx="296.11984"
     inkscape:cy="629.80614"
     inkscape:document-units="mm"
     inkscape:current-layer="layer2"
     showgrid="false"
     inkscape:window-width="1920"
     inkscape:window-height="1018"
     inkscape:window-x="-8"
     inkscape:window-y="-8"
     inkscape:window-maximized="1"
     showguides="true"
     inkscape:guide-bbox="true" />
  <metadata
     id="metadata5">
    <rdf:RDF>
      <cc:Work
         rdf:about="">
        <dc:format>image/svg+xml</dc:format>
        <dc:type
           rdf:resource="http://purl.org/dc/dcmitype/StillImage" />
      </cc:Work>
    </rdf:RDF>
  </metadata>
  <g
     inkscape:label="Camada 1"
     inkscape:groupmode="layer"
     id="layer1"
     style="display:inline" />
  <g
     inkscape:groupmode="layer"
     id="layer2"
     inkscape:label="Camada 2">
    <g
       id="g902"
       transform="matrix(5.9458342,0,0,5.9458342,-321.84386,-752.52799)"
       style="stroke-width:0.16818498"
       inkscape:export-xdpi="227"
       inkscape:export-ydpi="227">
      <path
         sodipodi:nodetypes="ccccccccccccc"
         inkscape:connector-curvature="0"
         id="path833"
         d="m 72.06034,137.25298 v -0.89333 h 0.752018 v 0.89333 h 0.893021 v 0.69456 h -0.893021 v 0.89167 H 72.06034 v -0.89167 h -0.893021 v -0.69456 z"
         style="fill:#ce0d0d;fill-opacity:1;stroke:none;stroke-width:0.04449894px;stroke-linecap:butt;stroke-linejoin:miter;stroke-opacity:1" />
      <path
         style="fill:#ce0d0d;fill-opacity:1;stroke:none;stroke-width:0.04449894px;stroke-linecap:butt;stroke-linejoin:miter;stroke-opacity:1"
         d="m 74.696112,135.70857 v -0.55242 h 0.465036 v 0.55242 h 0.55223 v 0.4295 h -0.55223 v 0.5514 h -0.465036 v -0.5514 h -0.55223 v -0.4295 z"
         id="path835"
         inkscape:connector-curvature="0"
         sodipodi:nodetypes="ccccccccccccc" />
      <path
         sodipodi:nodetypes="ccccccccccccc"
         inkscape:connector-curvature="0"
         id="path837"
         d="m 74.948968,139.33091 v -0.49421 h 0.416039 v 0.49421 h 0.494046 v 0.38425 h -0.494046 v 0.4933 h -0.416039 v -0.4933 h -0.494046 v -0.38425 z"
         style="fill:#ce0d0d;fill-opacity:1;stroke:none;stroke-width:0.04449894px;stroke-linecap:butt;stroke-linejoin:miter;stroke-opacity:1" />
      <path
         id="rect845"
         d="m 68.582012,140.19894 h 1.110307 c 0.08507,0 0.153553,0.0685 0.153553,0.15356 v 3.26003 c 0,0.0851 -0.06848,0.15355 -0.153553,0.15355 h -1.110307 c -0.08507,0 -0.153553,-0.0685 -0.153553,-0.15355 v -3.26003 c 0,-0.0851 0.06848,-0.15356 0.153553,-0.15356 z"
         style="opacity:1;fill:#ce0d0d;fill-opacity:1;fill-rule:nonzero;stroke:none;stroke-width:0.04456901;stroke-linecap:round;stroke-linejoin:round;stroke-miterlimit:4;stroke-dasharray:none;stroke-dashoffset:0;stroke-opacity:1;paint-order:normal"
         inkscape:connector-curvature="0" />
      <g
         style="fill:#ce0d0d;fill-opacity:1;stroke-width:0.16818498"
         id="g856">
        <path
           sodipodi:nodetypes="ccssszsscccsccc"
           inkscape:connector-curvature="0"
           id="path852"
           d="m 70.102772,140.83677 c 1.011885,-0.55932 2.150751,-0.23779 2.958845,0.42817 0.601407,0.0221 1.58173,0.0193 1.840667,0.18632 0.185962,0.11992 0.198185,0.40665 0.07261,0.57586 -0.339269,0.45716 -1.341631,0.30498 -2.031696,0.28605 -0.358249,-0.01 -0.683083,-0.11495 -0.688549,0.10076 -0.0055,0.2157 0.375713,0.11434 0.808921,0.16398 0.73876,0.0847 1.539314,0.0671 1.920631,-0.1922 0.291348,-0.1981 0.30604,-0.51694 0.336406,-0.60252 1.486327,-0.76252 1.703711,-0.43254 2.115528,0.0429 0.05155,0.0593 0.02841,0.13004 -0.02538,0.1562 -1.064739,0.57225 -3.01306,1.87031 -4.044999,1.88709 -1.089787,0.0177 -2.09732,-0.49927 -3.262996,-0.83569 0.0079,-0.79532 -0.0079,-1.40166 10e-7,-2.19698 z"
           style="fill:#ce0d0d;fill-opacity:1;stroke:none;stroke-width:0.04456901;stroke-linecap:butt;stroke-linejoin:bevel;stroke-miterlimit:4;stroke-dasharray:none;stroke-opacity:1" />
      </g>
    </g>
    <g
       id="g906"
       transform="matrix(4.037008,4.3652619,-4.3652619,4.037008,327.58456,-888.30726)"
       style="stroke-width:0.16818498"
       inkscape:export-xdpi="227"
       inkscape:export-ydpi="227">
      <rect
         ry="0.43430689"
         y="150.82027"
         x="106.32318"
         height="2.5390604"
         width="1.2695302"
         id="rect871"
         style="opacity:1;fill:#ce0d0d;fill-opacity:1;fill-rule:nonzero;stroke:none;stroke-width:0.04456901;stroke-linecap:round;stroke-linejoin:round;stroke-miterlimit:4;stroke-dasharray:none;stroke-dashoffset:0;stroke-opacity:1;paint-order:normal" />
      <path
         transform="scale(0.26458333)"
         id="rect882"
         d="m 404.24023,540.28516 -5.82031,7.06054 1.44531,16.95703 h -3.24804 c -1.25023,0 -2.25586,1.00762 -2.25586,2.25782 v 0.24023 c 0,1.25023 1.00563,2.25586 2.25586,2.25586 h 15.26562 c 1.25023,0 2.25781,-1.00563 2.25781,-2.25586 v -0.24023 c 10e-6,-1.2502 -1.00758,-2.25782 -2.25781,-2.25782 h -3.04297 l 1.52539,-16.95703 z m 0,8.03906 c 0.3089,0 0.5586,0.24775 0.5586,0.55664 v 15.3125 c 0,0.30889 -0.2497,0.55859 -0.5586,0.55859 -0.30889,0 -0.55664,-0.2497 -0.55664,-0.55859 v -15.3125 c 0,-0.30889 0.24775,-0.55664 0.55664,-0.55664 z"
         style="opacity:1;fill:#ce0d0d;fill-opacity:1;fill-rule:nonzero;stroke:none;stroke-width:0.16844983;stroke-linecap:round;stroke-linejoin:round;stroke-miterlimit:4;stroke-dasharray:none;stroke-dashoffset:0;stroke-opacity:1;paint-order:normal"
         inkscape:connector-curvature="0" />
    </g>
  </g>
</svg>
